<?xml version="1.0" standalone="no"?>
<!DOCTYPE svg PUBLIC "-//W3C//DTD SVG 20010904//EN"
 "http://www.w3.org/TR/2001/REC-SVG-20010904/DTD/svg10.dtd">
<svg version="1.0" xmlns="http://www.w3.org/2000/svg"
 width="1024.000000pt" height="815.000000pt" viewBox="0 0 1024.000000 815.000000"
 preserveAspectRatio="xMidYMid meet">

<g transform="translate(0.000000,815.000000) scale(0.100000,-0.100000)"
fill="#be4d25" stroke="none">
<path d="M1718 5185 c2 -14 6 -25 8 -25 2 0 4 11 4 25 0 14 -4 25 -9 25 -4 0
-6 -11 -3 -25z"/>
<path d="M1820 5176 c0 -16 65 -17 89 -1 9 5 12 4 8 -2 -3 -5 18 -9 53 -9 35
1 56 5 53 11 -3 6 0 5 7 -2 13 -12 40 -7 40 8 0 5 -56 9 -125 9 -101 0 -125
-3 -125 -14z"/>
<path d="M1432 5085 c-58 -84 -102 -260 -102 -410 0 -37 -4 -55 -9 -46 -7 11
-13 11 -32 0 -33 -17 -83 -52 -91 -64 -5 -7 -8 -7 -8 0 0 6 -4 5 -8 -2 -4 -6
-19 -14 -32 -16 -50 -10 -81 -20 -76 -24 9 -10 -24 -34 -36 -27 -15 10 -108
11 -108 2 0 -5 -5 -8 -11 -8 -5 0 -8 4 -5 9 3 5 -1 12 -10 15 -22 9 -24 8 -24
-11 0 -15 -2 -16 -10 -3 -5 8 -7 23 -4 33 3 9 3 17 0 17 -9 0 -64 -184 -82
-275 -23 -119 -23 -360 0 -465 39 -177 113 -352 200 -474 38 -53 185 -206 198
-206 3 0 10 18 17 39 13 45 4 76 -35 129 -14 18 -37 57 -50 87 -14 30 -29 55
-33 55 -18 0 -93 107 -102 147 -8 29 -26 58 -55 88 -24 24 -49 57 -55 72 -12
32 -2 233 14 273 5 14 11 46 12 71 1 27 11 61 23 81 12 20 22 48 22 62 0 45
52 122 72 109 6 -3 5 3 0 14 -13 24 26 116 57 132 34 19 86 13 127 -15 49 -32
64 -52 64 -81 0 -13 9 -41 20 -61 60 -113 82 -173 77 -212 -3 -27 -1 -43 10
-51 36 -31 58 -119 32 -135 -15 -9 9 -24 39 -24 l22 0 0 605 c0 333 -1 605 -2
605 -2 0 -14 -16 -26 -35z"/>
<path d="M2094 5083 l-50 -4 -28 -57 c-15 -31 -46 -86 -69 -121 -23 -36 -51
-89 -63 -119 -15 -40 -26 -56 -42 -58 -17 -3 -22 3 -28 30 -7 40 -36 71 -59
62 -10 -4 -19 3 -27 19 -6 14 -16 25 -21 25 -6 0 -20 9 -32 20 -27 26 -32 21
-85 -90 -36 -73 -42 -80 -59 -70 -11 5 -22 10 -25 10 -3 0 -6 -109 -6 -242 1
-183 3 -238 12 -223 21 39 74 87 121 112 206 104 569 75 693 -57 l29 -30 6 52
c3 29 4 209 1 401 l-5 347 -106 -2 c-58 -1 -129 -3 -157 -5z m-503 -429 c-8
-31 -7 -35 2 -20 23 36 45 61 50 56 3 -3 7 -32 8 -65 3 -51 1 -60 -14 -63 -9
-2 -20 3 -23 12 -5 14 -9 14 -31 -1 -22 -14 -26 -15 -40 -1 -14 14 -13 21 1
71 16 54 32 73 49 57 5 -4 4 -25 -2 -46z m384 36 c3 -6 0 -17 -8 -25 -8 -8
-18 -30 -21 -49 -8 -41 -31 -65 -48 -48 -8 8 -7 22 5 52 13 34 13 40 1 40 -14
0 -19 21 -7 33 10 11 71 8 78 -3z m203 -27 c0 -73 -29 -129 -45 -88 -5 13 12
95 24 118 10 19 21 3 21 -30z m-458 -15 c0 -9 3 -9 12 0 17 17 38 15 38 -4 0
-13 3 -14 15 -4 23 19 34 3 30 -43 -3 -47 -32 -66 -42 -27 -5 20 -7 20 -24 4
-17 -16 -19 -16 -25 0 -6 15 -8 15 -24 1 -29 -26 -41 10 -18 60 11 25 38 35
38 13z m320 -2 c0 -8 -7 -21 -15 -30 -8 -8 -15 -21 -15 -30 0 -20 -19 -31 -33
-17 -7 7 -7 22 2 51 10 33 16 40 36 40 15 0 25 -6 25 -14z m81 2 c1 -7 0 -17
-1 -23 -2 -5 -3 -17 -2 -26 1 -19 -41 -41 -63 -33 -19 8 -19 44 1 72 16 24 63
31 65 10z m119 0 c0 -9 3 -9 12 0 17 17 38 15 38 -4 0 -14 3 -14 16 -3 22 18
31 0 26 -51 -4 -44 -27 -55 -40 -19 -7 19 -9 19 -21 5 -17 -21 -31 -20 -31 1
0 15 -1 15 -18 0 -31 -28 -43 7 -20 58 11 25 38 35 38 13z"/>
<path d="M2410 4780 l0 -190 42 22 c63 33 151 36 211 8 131 -62 191 -225 126
-339 -11 -18 -18 -35 -17 -37 2 -1 24 6 48 18 54 25 154 27 218 4 109 -39 183
-146 183 -264 0 -83 -25 -160 -57 -172 -13 -5 -24 -14 -24 -18 0 -5 -12 -21
-27 -36 -18 -18 -33 -25 -47 -21 -14 4 -17 3 -8 -3 16 -11 7 -18 -56 -51 -54
-27 -87 -31 -154 -19 -107 20 -170 70 -209 168 -21 53 -16 183 9 249 l21 53
-22 -7 c-90 -27 -147 -27 -220 0 -14 6 -17 1 -17 -29 0 -28 4 -36 18 -36 30 0
87 -36 88 -56 0 -11 12 -37 27 -60 96 -143 42 -286 -142 -379 -80 -40 -230
-75 -351 -81 -94 -5 -112 -3 -176 19 l-72 25 -48 -35 c-27 -19 -89 -59 -139
-89 -131 -80 -281 -187 -385 -273 l-35 -29 29 -24 c170 -136 378 -233 591
-274 105 -20 317 -20 415 0 116 24 263 74 355 121 406 207 665 638 665 1106 0
101 -22 271 -41 314 -8 16 -8 15 -4 -8 5 -26 4 -27 -15 -17 -12 6 -34 12 -51
12 -16 1 -29 5 -29 10 0 4 -7 8 -15 8 -9 0 -18 7 -21 15 -4 8 -12 15 -18 15
-7 0 -33 19 -58 43 -26 23 -63 56 -83 72 -20 17 -55 50 -78 74 -85 88 -283
275 -322 303 -5 5 -30 24 -53 43 -24 19 -46 35 -48 35 -2 0 -4 -85 -4 -190z
m-607 -1452 c55 -64 -22 -178 -120 -178 -55 0 -60 11 -37 89 20 67 20 70 3 73
-30 5 -6 30 37 38 54 10 96 2 117 -22z m85 -50 c0 -58 -16 -120 -31 -115 -17
5 -20 48 -6 83 7 16 11 33 10 38 -3 14 7 36 17 36 5 0 10 -19 10 -42z m701 8
c-2 -2 -20 -1 -39 3 -35 8 -35 8 -10 19 19 7 29 7 39 -4 8 -7 13 -16 10 -18z
m-461 -8 c2 -19 -5 -36 -23 -54 -32 -32 -42 -25 -25 15 6 17 10 35 8 42 -5 16
-37 -34 -45 -71 -4 -25 -2 -30 14 -30 10 0 29 7 41 16 34 24 41 6 9 -22 -32
-28 -78 -31 -101 -8 -20 19 -20 37 -1 74 35 68 117 94 123 38z m85 -34 c-1 -5
-5 -18 -9 -29 -7 -19 -5 -18 18 3 37 33 48 28 48 -23 0 -38 -3 -45 -20 -45
-10 0 -23 7 -28 16 -8 14 -10 14 -21 0 -19 -23 -51 -20 -51 4 0 39 28 92 47
88 10 -2 17 -8 16 -14z m137 -1 c0 -15 1 -15 18 0 26 23 42 21 42 -5 0 -17 3
-19 12 -10 7 7 20 12 29 12 14 0 16 -10 15 -55 -1 -49 -3 -55 -21 -53 -11 2
-22 13 -25 27 -5 21 -7 22 -19 7 -7 -9 -22 -16 -33 -16 -16 0 -19 5 -15 21 l6
21 -23 -21 c-45 -42 -61 -13 -29 54 17 36 43 47 43 18z m232 -13 c-1 -14 -3
-34 -5 -45 -2 -22 -46 -41 -71 -32 -43 17 5 111 53 105 21 -2 26 -8 23 -28z"/>
<path d="M1726 3308 c-17 -51 -34 -123 -31 -126 2 -2 13 -1 25 3 29 9 53 66
41 99 -12 29 -30 42 -35 24z"/>
<path d="M2536 3214 c-4 -9 -4 -19 -1 -22 2 -3 7 3 11 12 4 9 4 19 1 22 -2 3
-7 -3 -11 -12z"/>
<path d="M3440 4705 c0 -136 18 -1152 24 -1397 l6 -188 -155 0 -155 0 0 -35 0
-35 155 0 154 0 3 -102 3 -103 35 0 35 0 -3 103 -3 102 2890 0 2891 0 0 35 0
35 -2890 0 -2890 0 0 118 c-1 96 -28 1561 -30 1570 0 1 -16 2 -35 2 l-35 0 0
-105z"/>
<path d="M1925 4337 c-16 -7 -33 -17 -38 -24 -11 -18 -142 -44 -185 -37 -34 5
-44 2 -75 -26 -62 -54 -47 -93 49 -137 149 -68 373 -69 523 -2 86 38 108 74
75 125 -46 70 -265 133 -349 101z"/>
<path d="M1037 4329 c7 -7 15 -10 18 -7 3 3 -2 9 -12 12 -14 6 -15 5 -6 -5z"/>
<path d="M1188 4313 c7 -3 16 -2 19 1 4 3 -2 6 -13 5 -11 0 -14 -3 -6 -6z"/>
<path d="M1118 4303 c12 -2 30 -2 40 0 9 3 -1 5 -23 4 -22 0 -30 -2 -17 -4z"/>
<path d="M978 4164 c12 -8 39 -17 60 -19 l37 -5 -40 10 c-22 6 -44 15 -49 20
-6 6 -15 10 -20 10 -6 0 0 -7 12 -16z"/>
<path d="M1190 4165 c-19 -7 -53 -14 -75 -16 -34 -2 -36 -3 -11 -6 32 -5 113
14 122 28 6 11 8 11 -36 -6z"/>
<path d="M1290 4030 c-8 -6 -35 -15 -59 -22 -36 -9 -41 -13 -25 -18 11 -5 33
0 54 11 47 25 67 39 55 39 -5 0 -17 -5 -25 -10z"/>
<path d="M1501 3978 c-1 -44 -5 -68 -13 -71 -7 -2 0 -3 16 -1 16 2 31 5 32 7
1 1 -6 31 -16 67 l-19 65 0 -67z"/>
<path d="M2325 4005 l-40 -13 35 -1 c19 0 46 6 60 14 22 12 22 14 5 14 -11 -1
-38 -7 -60 -14z"/>
<path d="M1110 3979 c-19 -5 -60 -7 -90 -4 -39 3 -48 2 -30 -4 37 -13 109 -11
155 4 45 15 19 18 -35 4z"/>
<path d="M2511 3927 c-2 -31 -32 -74 -60 -87 -14 -7 -63 -15 -109 -20 -74 -6
-87 -11 -115 -38 -54 -52 -138 -84 -238 -91 -88 -6 -89 -6 -89 16 0 30 -16 30
-24 1 -9 -35 -7 -96 3 -103 5 -3 15 1 23 8 7 8 45 16 83 20 120 10 241 68 281
135 16 28 22 30 83 34 110 6 180 57 168 121 -3 17 -5 18 -6 4z"/>
<path d="M1227 3884 c-20 -7 -50 -23 -66 -35 -49 -36 -180 -46 -233 -18 -10 5
-18 7 -18 4 0 -3 16 -13 35 -21 44 -18 135 -18 177 0 18 8 51 21 73 30 40 17
98 56 80 55 -5 -1 -27 -7 -48 -15z"/>
<path d="M1621 3876 c8 -8 109 -46 109 -41 0 12 -67 45 -89 45 -13 0 -22 -2
-20 -4z"/>
<path d="M8230 3836 c-16 -25 -30 -47 -30 -50 0 -3 12 -6 27 -6 18 0 35 10 49
27 l21 27 18 -27 c12 -19 26 -27 46 -27 36 0 36 6 -2 58 -26 35 -36 42 -64 42
-29 0 -39 -7 -65 -44z"/>
<path d="M6607 3863 c-4 -3 -7 -37 -7 -75 l0 -69 -22 15 c-32 23 -90 20 -123
-6 -36 -28 -55 -76 -55 -138 0 -62 19 -110 55 -138 35 -28 94 -29 128 -2 21
17 26 18 31 5 3 -9 18 -15 36 -15 l30 0 0 215 0 215 -33 0 c-19 0 -37 -3 -40
-7z m-29 -199 c18 -13 22 -24 22 -74 0 -56 -2 -60 -30 -75 -17 -9 -39 -13 -50
-10 -40 13 -50 123 -14 160 20 19 44 19 72 -1z"/>
<path d="M5589 3836 c-16 -34 3 -58 44 -54 62 6 61 70 -1 76 -26 3 -34 -2 -43
-22z"/>
<path d="M6749 3836 c-16 -34 3 -58 44 -54 62 6 61 70 -1 76 -26 3 -34 -2 -43
-22z"/>
<path d="M3734 3825 c-4 -9 -5 -78 -2 -154 5 -156 18 -193 78 -223 48 -25 131
-23 181 3 66 33 80 78 77 246 l-3 138 -40 0 -40 0 -2 -135 c-2 -74 -5 -145 -8
-156 -10 -44 -105 -55 -137 -17 -9 11 -15 62 -18 162 l-5 146 -38 3 c-27 2
-39 -1 -43 -13z"/>
<path d="M3110 3809 c0 -11 5 -17 10 -14 6 3 10 13 10 21 0 8 -4 14 -10 14 -5
0 -10 -9 -10 -21z"/>
<path d="M4837 3814 c-4 -4 -7 -22 -7 -40 0 -26 -4 -33 -22 -36 -32 -4 -33
-52 -1 -56 20 -3 21 -9 25 -108 3 -98 5 -107 27 -125 18 -15 36 -19 70 -17 45
3 46 4 49 41 3 36 2 37 -23 31 -37 -9 -45 7 -45 99 l0 77 35 0 c32 0 35 2 35
30 0 28 -3 30 -34 30 -33 0 -35 2 -38 38 -3 33 -6 37 -33 40 -17 2 -34 0 -38
-4z"/>
<path d="M2950 3750 c0 -5 4 -10 9 -10 6 0 13 5 16 10 3 6 -1 10 -9 10 -9 0
-16 -4 -16 -10z"/>
<path d="M1600 3741 c0 -5 7 -12 16 -15 14 -5 15 -4 4 9 -14 17 -20 19 -20 6z"/>
<path d="M4257 3730 c-30 -24 -37 -25 -37 -4 0 11 -8 14 -32 12 l-33 -3 0
-145 0 -145 38 -3 37 -3 0 99 c0 91 2 100 24 121 55 52 86 6 86 -127 l0 -93
38 3 37 3 3 102 c3 96 4 104 27 119 30 19 61 11 69 -19 3 -12 6 -64 6 -115 l0
-93 38 3 37 3 3 110 c2 67 -2 120 -9 137 -25 61 -91 75 -152 34 l-35 -24 -23
24 c-29 31 -86 32 -122 4z"/>
<path d="M5145 3730 c-22 -24 -35 -26 -35 -4 0 11 -8 14 -32 12 l-33 -3 0
-145 0 -145 38 -3 37 -3 0 94 c0 87 2 96 25 122 20 20 32 25 50 21 23 -6 25
-4 25 34 0 37 -2 40 -28 40 -16 0 -37 -9 -47 -20z"/>
<path d="M5309 3723 c-40 -34 -59 -79 -59 -140 0 -98 57 -154 155 -152 82 2
100 10 103 48 3 31 2 33 -20 27 -13 -3 -42 -9 -65 -12 -36 -6 -45 -3 -67 19
-48 48 -37 57 69 57 90 0 95 1 100 23 10 41 -18 110 -54 134 -50 33 -119 32
-162 -4z m125 -55 c28 -40 21 -48 -45 -48 -58 0 -60 1 -54 23 15 49 72 63 99
25z"/>
<path d="M5855 3730 c-25 -17 -31 -17 -38 -5 -4 8 -21 15 -37 15 l-30 0 0
-151 0 -150 38 3 37 3 5 103 c4 88 8 106 24 118 24 17 52 18 63 2 4 -7 10 -60
13 -118 l5 -105 37 -3 37 -3 3 102 c3 98 4 103 31 123 21 16 32 18 45 10 14
-9 18 -32 22 -120 l5 -109 38 -3 37 -3 0 126 c0 127 0 127 -29 156 -38 38 -87
39 -130 4 l-30 -26 -25 26 c-31 31 -79 33 -121 5z"/>
<path d="M7088 3733 c-81 -51 -93 -212 -19 -277 29 -26 109 -33 149 -12 27 14
32 22 32 51 0 40 1 40 -44 19 -46 -23 -81 -13 -95 27 -14 40 -14 68 0 107 13
39 58 52 95 27 29 -19 44 -12 44 20 0 49 -105 73 -162 38z"/>
<path d="M7757 3730 c-30 -24 -37 -25 -37 -4 0 11 -8 14 -32 12 l-33 -3 0
-145 0 -145 38 -3 37 -3 0 99 c0 91 2 100 24 121 55 52 86 6 86 -127 l0 -93
38 3 37 3 3 102 c3 96 4 104 27 119 30 19 61 11 69 -19 3 -12 6 -64 6 -115 l0
-93 38 3 37 3 3 110 c2 67 -2 120 -9 137 -25 61 -91 75 -152 34 l-35 -24 -23
24 c-29 31 -86 32 -122 4z"/>
<path d="M8223 3730 c-80 -48 -93 -195 -23 -264 29 -29 35 -31 109 -31 85 0
114 13 109 49 -2 15 -9 20 -23 18 -11 -2 -44 -4 -73 -5 -57 -2 -82 15 -82 55
0 15 12 18 93 20 l92 3 0 54 c-1 49 -4 56 -38 87 -31 29 -44 34 -84 34 -30 0
-60 -7 -80 -20z m111 -56 c9 -8 16 -24 16 -35 0 -16 -7 -19 -55 -19 -45 0 -55
3 -55 17 0 44 63 69 94 37z"/>
<path d="M5594 3727 c-2 -7 -3 -74 -2 -148 l3 -134 38 -3 37 -3 0 150 0 151
-35 0 c-20 0 -38 -6 -41 -13z"/>
<path d="M6754 3727 c-2 -7 -3 -74 -2 -148 l3 -134 38 -3 37 -3 0 150 0 151
-35 0 c-20 0 -38 -6 -41 -13z"/>
<path d="M7307 3734 c-10 -10 -8 -172 3 -219 17 -77 89 -107 157 -66 26 16 32
17 37 5 3 -8 19 -14 36 -14 l30 0 0 151 0 150 -37 -3 -38 -3 -3 -103 -3 -103
-34 -16 c-55 -26 -64 -11 -67 115 l-3 107 -35 3 c-20 2 -39 0 -43 -4z"/>
<path d="M2869 3704 c-9 -12 -5 -13 22 -8 44 9 45 10 14 16 -14 3 -30 -1 -36
-8z"/>
<path d="M1132 3691 c-10 -6 -6 -13 13 -25 26 -17 26 -17 14 6 -6 13 -12 24
-13 25 -1 1 -7 -2 -14 -6z"/>
<path d="M1290 3645 c7 -9 15 -13 17 -11 7 7 -7 26 -19 26 -6 0 -6 -6 2 -15z"/>
<path d="M1600 3625 c19 -14 35 -25 37 -25 10 0 -19 39 -33 44 -34 13 -36 5
-4 -19z"/>
<path d="M1830 3560 c-12 -8 -10 -10 10 -9 14 0 34 4 45 9 17 7 16 9 -10 9
-16 0 -37 -4 -45 -9z"/>
<path d="M1180 3490 c13 -23 20 -26 20 -6 0 8 -7 16 -15 20 -13 4 -14 2 -5
-14z"/>
<path d="M1375 3458 c11 -15 24 -28 28 -28 15 0 1 23 -23 39 l-24 16 19 -27z"/>
</g>
</svg>
