<?xml version="1.0" standalone="no"?>
<!DOCTYPE svg PUBLIC "-//W3C//DTD SVG 20010904//EN"
 "http://www.w3.org/TR/2001/REC-SVG-20010904/DTD/svg10.dtd">
<svg version="1.0" xmlns="http://www.w3.org/2000/svg"
 width="1280.000000pt" height="958.000000pt" viewBox="0 0 1280.000000 958.000000"
 preserveAspectRatio="xMidYMid meet">
<metadata>
Created by potrace 1.15, written by Peter Selinger 2001-2017
</metadata>
<g transform="translate(0.000000,958.000000) scale(0.100000,-0.100000)"
fill="#be4d25" stroke="none">
<path d="M5168 9575 c-3 -3 -54 -10 -114 -15 -115 -11 -238 -44 -340 -90 -66
-30 -106 -72 -191 -202 -62 -95 -93 -161 -93 -197 0 -26 5 -32 33 -39 31 -8
32 -11 40 -73 18 -137 51 -271 113 -455 35 -106 64 -195 64 -198 0 -3 -19 -6
-42 -6 -62 0 -88 -9 -88 -31 0 -21 13 -25 113 -34 79 -7 143 -30 157 -56 16
-29 12 -30 -32 -7 -48 25 -178 32 -199 10 -19 -18 1 -104 49 -205 l39 -83 -96
-49 c-170 -88 -357 -221 -540 -383 -109 -96 -127 -108 -135 -87 -3 8 -22 23
-43 35 -21 11 -63 38 -93 60 -67 48 -188 101 -295 130 -262 68 -761 25 -819
-72 -19 -31 2 -30 102 5 206 74 553 75 764 4 86 -30 128 -49 122 -58 -3 -5
-44 -9 -92 -9 -277 0 -605 -50 -690 -106 -45 -30 -10 -31 96 -4 134 35 221 47
434 59 251 15 364 -4 424 -71 12 -12 41 -52 65 -88 23 -36 62 -89 86 -118 36
-44 93 -140 93 -156 0 -2 -62 -5 -138 -8 -125 -3 -142 -6 -192 -30 -30 -15
-71 -41 -90 -58 l-35 -31 40 5 c22 3 72 10 110 17 80 13 222 6 262 -13 18 -9
31 -28 41 -58 20 -60 40 -88 143 -197 110 -115 115 -123 88 -157 -22 -28 -53
-33 -93 -15 -45 21 -156 -19 -156 -56 0 -20 25 -25 55 -9 15 8 31 11 36 8 30
-18 -16 -139 -60 -156 -14 -5 -70 -8 -124 -6 -83 2 -101 6 -113 22 -11 16 -16
17 -28 6 -19 -15 -77 -130 -71 -140 2 -4 15 -5 29 -3 13 3 45 -5 71 -16 27
-12 50 -19 53 -17 2 3 -8 20 -22 39 -14 19 -26 37 -26 40 0 10 93 8 109 -2 8
-5 11 -16 6 -30 -4 -15 1 -28 19 -46 33 -33 33 -39 -4 -86 l-31 -38 7 -113 c6
-106 5 -115 -15 -140 -40 -50 -207 -78 -337 -58 -92 14 -174 56 -267 135 -116
99 -236 270 -263 374 -15 60 -40 63 -37 5 3 -85 106 -248 267 -424 53 -58 96
-112 96 -121 0 -19 -12 -36 -131 -179 -102 -124 -169 -218 -169 -237 0 -26 31
2 124 112 50 60 96 110 101 112 6 2 11 -36 11 -100 2 -121 37 -382 65 -487 44
-163 168 -378 284 -492 224 -220 666 -357 985 -304 58 9 98 12 104 6 5 -5 15
-89 22 -187 17 -237 43 -479 55 -509 7 -20 5 -29 -15 -49 -29 -29 -87 -59
-143 -74 -55 -15 -175 -96 -388 -262 -229 -179 -369 -276 -408 -284 -79 -16
-158 -48 -177 -72 -25 -32 -27 -131 -5 -278 18 -121 32 -165 51 -165 18 0 18
37 -2 180 -19 140 -16 223 12 249 11 11 48 23 91 30 109 17 181 47 223 94 45
50 166 153 346 294 147 114 202 143 339 177 100 24 110 24 107 -1 -5 -35 11
-28 84 36 63 57 180 129 190 118 8 -8 -113 -110 -178 -149 -34 -21 -98 -51
-142 -68 -143 -53 -182 -75 -202 -114 -18 -34 -259 -311 -354 -406 -28 -28
-61 -50 -88 -58 -45 -14 -51 -22 -27 -42 22 -18 -1 -56 -80 -127 -85 -78 -200
-138 -249 -130 -21 3 -36 2 -36 -4 0 -17 46 -102 158 -291 60 -100 134 -226
164 -278 72 -123 125 -174 93 -90 -7 19 -22 57 -32 84 l-18 49 44 36 c75 61
136 119 131 125 -9 8 -60 -21 -125 -69 -33 -25 -67 -44 -75 -43 -8 2 -30 24
-50 50 -40 55 -209 346 -216 376 -5 16 3 23 43 37 149 53 162 63 327 258 84
100 212 245 282 322 71 77 143 157 160 178 29 35 35 38 75 35 35 -2 46 -8 56
-28 6 -14 37 -135 68 -270 73 -315 78 -327 111 -283 11 17 13 16 24 -11 17
-44 -2 -79 -61 -110 -27 -15 -56 -40 -63 -55 -24 -45 -216 -195 -418 -324 -87
-57 -105 -73 -93 -85 12 -12 191 87 327 181 191 132 188 130 192 115 3 -7 7
-42 9 -77 4 -50 11 -69 31 -90 13 -14 29 -38 35 -52 9 -24 32 -196 46 -339 4
-36 16 -105 28 -154 l21 -89 -26 -22 c-30 -26 -120 -58 -223 -80 -76 -16 -349
-31 -730 -39 l-240 -6 52 27 c29 15 55 33 57 40 3 7 -3 36 -14 63 l-19 49 40
48 c41 50 55 83 45 108 -8 22 -29 19 -98 -16 -33 -17 -64 -27 -68 -22 -5 4
-25 46 -46 93 -20 47 -67 144 -103 215 -37 72 -92 185 -123 252 l-56 122 -104
3 -103 3 -3 54 c-3 58 33 202 70 279 l20 43 -23 25 c-26 28 -42 29 -175 9 -54
-8 -145 -15 -201 -15 -96 0 -103 1 -103 20 0 37 42 131 65 146 13 9 22 21 19
28 -2 6 5 38 16 70 11 33 20 79 20 103 0 42 1 43 33 43 80 0 86 52 11 96 -73
43 -51 65 39 39 41 -12 61 -13 76 -6 44 24 161 249 161 310 0 26 -5 31 -37 40
-21 6 -65 11 -99 11 -34 0 -82 3 -108 6 l-46 7 0 366 c0 389 -7 515 -40 706
-82 475 -255 981 -417 1222 -50 75 -138 173 -154 173 -5 0 -65 -58 -134 -129
-95 -97 -158 -151 -263 -224 -75 -53 -184 -139 -242 -190 -58 -51 -168 -144
-245 -206 -208 -169 -338 -285 -427 -386 -89 -99 -382 -484 -451 -592 -111
-174 -296 -545 -397 -797 -134 -337 -231 -794 -251 -1191 -17 -318 -18 -2182
-1 -2219 l12 -28 708 6 c1560 15 3073 38 4077 62 773 19 5668 38 6175 23 602
-16 1446 -8 1687 17 34 3 69 11 76 18 13 9 13 108 6 686 -21 1602 -28 1946
-39 1993 -14 55 0 151 51 365 18 79 26 129 20 135 -37 37 -211 -821 -265
-1313 -55 -495 -57 -1009 -6 -1535 23 -229 23 -237 11 -215 -10 18 -43 267
-66 495 -34 341 -35 631 -5 1070 20 292 20 295 210 1190 105 497 107 528 21
365 -104 -200 -281 -737 -310 -941 -5 -37 -7 -121 -4 -188 l6 -120 -40 -41
c-36 -36 -46 -40 -89 -40 -54 0 -164 18 -183 29 -10 6 4 39 55 132 37 68 82
152 101 186 60 111 103 147 103 87 0 -15 6 -24 15 -24 8 0 15 7 15 17 0 9 -25
126 -56 260 -192 843 -457 1567 -776 2111 -72 123 -132 231 -135 241 -3 11 8
24 36 39 124 70 215 176 358 417 52 88 122 197 155 243 33 45 62 97 65 116 5
34 -18 96 -37 96 -5 0 -41 -27 -78 -59 -128 -110 -421 -289 -430 -262 -2 6 8
37 23 68 15 32 53 129 86 217 43 117 56 163 49 176 -20 37 -38 30 -85 -29 -45
-57 -120 -124 -275 -246 -41 -33 -105 -85 -141 -117 -74 -64 -104 -72 -119
-32 -18 46 -12 79 20 109 17 16 30 38 30 49 0 12 74 143 164 293 90 149 178
306 196 350 122 291 84 479 -135 661 -255 211 -587 329 -810 286 -173 -32
-266 -56 -312 -80 -26 -13 -65 -24 -85 -24 -27 0 -38 -4 -38 -14 0 -15 -21
-34 -170 -156 -123 -101 -179 -159 -262 -271 -74 -102 -91 -116 -155 -134 -12
-3 -34 -20 -48 -36 -28 -34 -33 -85 -14 -154 22 -80 39 -104 81 -117 53 -16
68 -51 68 -160 0 -97 -3 -102 -120 -198 -41 -34 -79 -68 -83 -76 -15 -26 17
-15 83 28 81 53 167 137 176 173 4 15 -1 72 -11 128 -17 97 -17 101 1 114 10
7 41 13 69 13 41 0 59 -6 88 -28 57 -42 267 -272 274 -300 3 -13 0 -49 -7 -79
-7 -33 -9 -77 -5 -109 7 -56 54 -162 82 -186 12 -10 61 -13 202 -13 131 0 193
-4 208 -12 30 -18 157 -16 299 2 135 18 142 16 168 -63 25 -71 21 -104 -15
-138 -17 -16 -60 -73 -96 -127 -37 -54 -76 -105 -87 -112 -12 -7 -48 -18 -81
-24 -33 -6 -116 -30 -184 -53 l-124 -42 -17 22 c-25 31 -46 172 -29 203 6 13
54 67 106 121 142 149 119 158 -42 15 -201 -178 -346 -246 -523 -247 -76 0
-125 16 -136 45 -10 28 -7 150 6 186 6 19 22 49 34 68 28 41 19 68 -30 85 -17
6 -73 32 -124 58 -51 27 -97 48 -102 48 -23 0 -7 -42 40 -100 28 -34 50 -72
50 -85 0 -12 16 -44 35 -71 35 -48 36 -50 29 -120 l-6 -70 37 -33 c48 -42 74
-51 143 -51 115 0 261 35 364 86 26 13 49 24 52 24 4 0 39 -128 51 -186 6 -29
1 -35 -77 -101 -46 -39 -159 -140 -253 -226 -93 -86 -184 -164 -201 -172 -44
-21 -60 -43 -47 -63 16 -26 61 -30 214 -21 78 5 144 8 146 6 1 -2 -12 -41 -31
-88 -19 -46 -57 -151 -85 -232 -63 -183 -95 -257 -171 -394 -33 -58 -57 -110
-54 -114 3 -5 30 3 61 16 31 14 83 32 117 41 77 20 192 60 324 113 56 22 105
41 108 41 3 0 3 -32 -1 -70 -5 -47 -3 -75 4 -84 9 -10 4 -19 -24 -40 -19 -15
-35 -36 -35 -47 0 -16 7 -19 46 -19 67 0 56 -27 -25 -59 -72 -29 -90 -51 -42
-51 17 0 31 -4 31 -8 0 -27 -96 -411 -120 -482 -16 -48 -57 -197 -90 -333 -84
-344 -102 -399 -144 -430 l-33 -26 -12 25 c-14 31 -14 74 -1 74 6 0 23 -8 37
-17 26 -17 26 -17 21 2 -4 11 -12 34 -19 52 -11 27 -10 36 5 66 27 49 17 65
-21 33 -17 -14 -35 -26 -40 -26 -12 0 -209 270 -285 391 -32 50 -58 103 -58
117 0 14 -7 34 -17 44 -15 17 -15 18 0 18 10 0 17 7 17 15 0 11 -12 15 -44 15
-40 0 -48 4 -80 42 -36 41 -45 71 -26 83 22 13 10 35 -19 35 -20 0 -36 9 -50
26 -32 41 -61 130 -61 188 0 60 -23 100 -64 110 -26 6 -74 78 -161 241 -85
159 -127 217 -301 416 -182 209 -196 239 -111 239 109 0 220 62 356 198 189
188 221 280 221 632 -1 329 -28 605 -101 1030 -69 395 -124 611 -211 825 -25
61 -51 127 -58 148 -6 21 -32 82 -57 135 -25 53 -52 117 -59 142 -26 83 -257
365 -373 454 -188 145 -436 248 -761 315 -388 81 -735 133 -1000 151 -166 11
-208 17 -226 32 -8 5 -12 44 -11 106 1 109 -23 198 -93 348 -61 132 -76 124
-60 -33 16 -150 17 -158 35 -143 8 7 15 21 15 32 0 17 3 18 14 9 8 -7 19 -42
25 -79 11 -76 23 -222 17 -222 -7 0 -77 154 -97 214 -11 34 -29 103 -39 153
-23 110 -42 149 -110 231 -62 74 -110 106 -150 100 -24 -4 -30 -1 -30 14 0 11
-16 26 -42 39 -24 12 -69 46 -101 76 -49 47 -62 54 -84 48 -29 -7 -43 6 -43
41 0 38 -20 44 -84 23 -33 -10 -73 -28 -89 -40 l-29 -21 -34 33 -35 34 -39
-23 c-50 -29 -56 -28 -75 8 -14 27 -42 39 -57 25z m205 -112 c-3 -10 -12 -27
-20 -38 -12 -19 -13 -18 -13 6 0 24 16 49 32 49 4 0 5 -8 1 -17z m117 -100 c0
-5 -11 -26 -25 -48 -31 -50 -32 -81 -4 -88 20 -5 21 -10 15 -59 -10 -74 -36
-155 -58 -175 -17 -15 -18 -11 -18 106 0 110 -2 126 -25 171 -14 27 -25 55
-25 63 0 9 22 17 63 24 34 5 65 11 70 11 4 1 7 -1 7 -5z m-543 -70 c-4 -32 -9
-82 -13 -110 -4 -35 -3 -53 4 -53 6 0 17 -12 24 -27 7 -15 24 -30 38 -33 14
-3 29 -16 35 -28 6 -13 19 -22 32 -22 19 0 23 -6 23 -29 0 -22 8 -36 31 -51
18 -14 28 -28 25 -37 -7 -17 15 -61 42 -87 12 -10 24 -31 27 -46 9 -41 30 -43
72 -7 l38 32 -19 -30 c-10 -16 -28 -40 -39 -52 -24 -27 -16 -53 16 -53 51 0
99 80 171 290 51 148 61 168 73 156 4 -4 -9 -56 -30 -115 -40 -118 -41 -121
-29 -121 5 0 37 52 72 116 71 131 110 181 157 200 43 18 43 18 43 -13 l1 -28
32 36 c17 19 42 48 54 65 l23 29 67 -72 c75 -79 97 -93 143 -93 27 0 34 -6 50
-42 10 -24 21 -59 24 -78 l7 -35 -31 38 c-68 80 -59 42 44 -185 65 -143 103
-267 150 -500 19 -90 20 -120 5 -171 -16 -57 -50 -72 -211 -92 -60 -8 -69 -32
-39 -100 25 -58 25 -58 3 -50 -11 3 -29 -3 -44 -15 -31 -23 -38 -18 -73 59
-13 26 -50 78 -83 115 -33 36 -76 95 -96 130 -41 73 -87 126 -110 126 -23 0
-20 -9 20 -65 20 -28 44 -68 54 -90 9 -22 47 -75 84 -118 64 -76 123 -173 112
-185 -3 -3 -25 0 -47 7 -39 12 -43 11 -66 -11 -13 -13 -52 -67 -86 -118 -79
-119 -114 -142 -203 -138 -119 7 -291 117 -431 276 -127 144 -207 277 -276
462 -75 201 -105 254 -164 285 -22 12 -40 30 -44 45 -9 34 -10 166 -2 279 l6
92 39 -37 c46 -46 48 -55 7 -47 -31 6 -32 6 -26 -28 4 -19 10 -58 13 -87 5
-37 13 -56 25 -63 12 -6 19 -21 19 -39 0 -23 7 -33 30 -45 20 -11 30 -23 30
-39 0 -52 143 -66 285 -29 76 19 77 21 61 90 -6 26 -3 36 23 62 19 20 28 37
24 50 -7 28 -175 213 -224 247 l-41 28 -22 -27 -22 -28 -70 33 c-57 27 -65 34
-44 36 34 5 50 20 50 47 0 30 -21 46 -70 52 -48 7 -58 18 -35 43 25 27 63 34
92 15 34 -22 58 -14 121 40 30 25 58 45 64 45 7 0 8 -21 5 -57z m-297 -173 c0
-5 -9 -10 -20 -10 -11 0 -20 5 -20 10 0 6 9 10 20 10 11 0 20 -4 20 -10z m118
-772 c14 -14 16 -88 3 -88 -12 0 -52 81 -45 92 7 12 28 10 42 -4z m1670 -228
c86 -232 134 -372 129 -376 -6 -6 -149 238 -168 286 -7 19 -14 64 -14 100 0
36 -4 83 -9 105 -15 73 10 25 62 -115z m-1729 23 c5 -10 13 -48 19 -85 13 -85
37 -135 76 -159 37 -23 56 -24 81 -5 16 12 17 16 6 30 -7 8 -28 18 -47 22 -37
7 -54 28 -54 66 0 13 -6 47 -14 76 l-13 52 23 -15 c13 -8 30 -15 38 -15 33 0
235 -268 213 -282 -7 -4 -52 -8 -102 -8 -144 0 -195 34 -261 175 -44 91 -51
127 -29 148 21 22 52 22 64 0z m1743 -310 c147 -237 203 -366 168 -388 -15 -9
-38 36 -75 150 -20 60 -40 114 -46 122 -37 44 -153 -34 -247 -166 -36 -51 -38
-48 -18 29 25 102 48 231 42 245 -10 26 -23 16 -74 -53 -84 -113 -182 -177
-315 -207 -148 -33 -181 -1 -52 52 64 26 88 42 120 80 95 113 174 178 226 188
19 3 59 24 89 45 30 21 64 38 75 39 16 1 40 -30 107 -136z m-256 -195 c-9 -57
-55 -215 -74 -255 -9 -18 -22 -33 -30 -33 -37 0 -222 124 -222 149 0 4 23 13
52 20 74 17 167 65 224 116 27 24 51 44 53 45 2 0 1 -19 -3 -42z m-809 -59
c102 -43 108 -56 208 -459 31 -124 60 -240 66 -258 l11 -32 59 51 60 52 45
-44 c25 -24 52 -59 59 -76 8 -18 19 -33 26 -33 20 0 98 88 104 117 15 70 102
193 137 193 10 0 36 -11 57 -25 115 -72 291 -87 291 -24 0 5 20 44 45 87 36
63 47 91 54 152 11 83 19 110 32 110 10 0 11 -3 39 -150 26 -130 94 -403 120
-481 11 -32 20 -63 20 -68 0 -12 -42 -26 -310 -101 -118 -34 -322 -97 -453
-141 -224 -76 -240 -79 -262 -65 -30 20 -107 157 -178 316 -109 247 -314 900
-283 900 2 0 26 -9 53 -21z m296 -80 c91 -11 146 -32 195 -74 44 -37 35 -41
-19 -10 -24 13 -51 25 -60 25 -23 0 -41 -25 -48 -68 -6 -36 -8 -37 -51 -40
-77 -6 -78 -35 -9 -192 28 -63 57 -129 65 -147 13 -30 13 -32 -19 -52 -17 -11
-35 -17 -40 -12 -14 14 -147 529 -147 570 0 20 4 22 26 17 14 -4 62 -11 107
-17z m-376 -31 c-3 -7 -5 -2 -5 12 0 14 2 19 5 13 2 -7 2 -19 0 -25z m33 -115
c32 -153 195 -581 316 -830 41 -84 74 -157 74 -163 0 -13 -33 -27 -81 -35 -82
-13 -112 -70 -85 -160 9 -27 16 -58 16 -68 0 -15 -3 -16 -22 -6 -43 23 -138
100 -138 112 0 7 18 34 40 60 54 66 58 97 25 209 -51 172 -63 222 -98 413 -32
168 -52 299 -72 473 -8 71 10 67 25 -5z m5226 6 c4 -7 23 -9 53 -5 25 3 72 1
104 -4 31 -6 82 -14 113 -20 35 -6 67 -19 87 -36 48 -40 250 -162 280 -169 29
-8 35 -13 125 -120 40 -47 61 -82 64 -105 7 -44 -8 -211 -28 -310 -28 -143
-262 -571 -384 -704 -37 -40 -50 -47 -113 -61 -87 -19 -279 -45 -289 -38 -5 2
-8 14 -8 27 0 12 -39 85 -86 162 -47 76 -146 247 -220 379 -151 272 -188 330
-225 358 -26 19 -27 19 -66 -1 -33 -18 -123 -102 -123 -117 0 -18 60 -156 108
-250 l58 -111 -136 141 c-75 77 -160 165 -188 196 -29 32 -71 69 -92 84 -47
32 -50 55 -19 118 29 56 78 127 88 127 5 0 15 -14 22 -32 7 -18 39 -72 71
-120 42 -64 63 -88 79 -88 40 0 169 109 169 143 0 18 -62 146 -111 228 -48 81
-49 80 51 144 148 96 243 130 401 145 79 8 123 17 144 30 35 21 61 25 71 9z
m-1065 -680 c90 -64 139 -125 90 -112 -10 3 -30 -1 -42 -8 -13 -7 -30 -12 -38
-10 -7 1 -25 -8 -38 -21 l-25 -23 8 25 c9 28 9 43 -2 113 -6 41 -10 48 -25 44
-19 -5 -25 4 -12 16 13 14 41 6 84 -24z m-2523 -41 c24 -29 69 -409 53 -450
-10 -27 -67 -80 -110 -102 -18 -10 -35 -31 -46 -58 -23 -60 -51 -87 -200 -193
-72 -51 -137 -100 -145 -110 -14 -17 -13 -17 10 -11 14 4 86 40 160 80 208
112 215 114 485 126 226 11 285 17 285 30 0 25 -91 32 -317 25 -196 -6 -233
-5 -233 7 0 20 148 158 170 158 4 0 6 -8 3 -19 -4 -16 3 -20 44 -25 78 -11
151 -35 269 -87 66 -29 124 -49 141 -47 41 3 107 -45 240 -175 116 -113 190
-207 179 -226 -5 -7 -56 -11 -142 -11 l-134 0 0 51 c0 63 -20 62 -35 -2 l-11
-44 -84 -8 c-47 -5 -89 -12 -93 -16 -5 -5 16 -57 46 -117 51 -103 157 -338
157 -350 0 -3 -21 13 -47 35 -25 23 -68 49 -96 59 -49 17 -117 78 -117 105 0
8 9 22 20 32 49 44 9 46 -96 5 l-77 -31 -31 30 -32 31 -27 -54 c-15 -29 -27
-56 -27 -59 0 -3 12 -7 28 -9 26 -4 26 -4 -12 -21 -22 -9 -41 -16 -42 -14 -2
2 -15 54 -29 116 -27 124 -30 131 -51 131 -18 0 -18 -48 1 -120 8 -30 18 -81
21 -113 4 -32 15 -68 24 -80 l18 -22 20 25 c17 21 24 23 48 15 21 -8 30 -19
36 -45 7 -33 3 -145 -8 -216 l-4 -31 -83 -6 c-45 -3 -165 -23 -267 -45 -210
-46 -818 -162 -848 -162 -17 0 -23 12 -36 68 -24 105 -53 371 -71 642 -18 273
-28 335 -74 463 -17 48 -38 134 -46 190 -8 56 -20 133 -25 170 -6 38 -18 79
-26 93 -21 32 -13 50 28 58 18 3 166 49 329 101 274 87 515 159 734 219 101
28 158 32 173 14z m-1755 -323 c126 -100 279 -244 274 -258 -2 -6 -8 -12 -14
-14 -18 -6 -278 202 -411 330 -38 36 -49 52 -40 58 18 11 74 -23 191 -116z
m463 -139 c19 -64 31 -231 16 -239 -24 -15 -61 143 -62 262 0 46 2 52 15 41 8
-7 22 -35 31 -64z m1460 40 c15 -12 17 -17 6 -28 -15 -15 -45 0 -50 26 -4 20
18 21 44 2z m75 -43 c26 -15 38 -33 24 -33 -14 0 -65 32 -65 40 0 14 8 13 41
-7z m2857 -77 c3 -12 -1 -17 -10 -14 -7 3 -15 13 -16 22 -3 12 1 17 10 14 7
-3 15 -13 16 -22z m-4670 -72 c-10 -10 -28 6 -28 24 0 15 1 15 17 -1 9 -9 14
-19 11 -23z m184 -1 c23 -26 60 -102 54 -112 -3 -4 -36 -16 -73 -26 -77 -20
-139 -51 -148 -73 -10 -27 19 -43 107 -57 172 -28 204 -44 193 -99 -15 -72 -4
-67 -141 -64 -76 2 -125 -1 -126 -7 -3 -9 35 -17 191 -41 18 -3 44 -16 57 -29
20 -20 24 -34 24 -88 0 -45 -5 -68 -15 -77 -8 -7 -47 -16 -87 -20 -86 -10
-104 -16 -112 -37 -6 -14 3 -15 71 -10 43 4 94 9 114 13 35 6 36 5 56 -42 40
-94 41 -90 -24 -109 -76 -22 -113 -42 -113 -60 0 -8 1 -15 3 -15 1 0 36 9 77
20 41 10 78 16 82 12 18 -18 -121 -133 -236 -197 -75 -41 -137 -60 -290 -86
-120 -20 -156 -32 -156 -49 0 -15 78 -12 196 6 58 9 108 14 111 10 4 -4 7 -37
6 -75 -1 -53 -7 -80 -28 -122 -33 -64 -101 -158 -120 -166 -21 -7 -176 90
-221 139 -54 58 -108 150 -133 225 -35 105 -27 278 20 426 20 61 28 73 73 106
28 21 57 45 65 54 19 23 31 21 31 -4 0 -29 55 -188 95 -276 41 -90 105 -154
181 -182 68 -26 97 -27 92 -4 -2 10 -28 26 -66 41 -82 31 -122 72 -171 175
-65 134 -93 243 -98 384 -8 195 30 319 120 387 19 14 72 42 118 61 46 20 104
46 129 59 56 29 73 31 92 9z m4592 -31 c56 -37 166 -138 166 -152 0 -4 -7 -13
-15 -20 -12 -10 -20 -9 -40 4 -13 9 -33 16 -43 16 -10 0 -30 9 -43 21 -27 23
-70 20 -101 -8 -17 -15 -18 -14 -18 15 0 21 -7 35 -20 42 -14 8 -20 21 -20 46
0 84 45 96 134 36z m-4476 -179 c4 -52 -1 -53 -108 -19 -75 24 -75 24 -45 36
59 24 80 29 115 27 34 -2 35 -4 38 -44z m92 -123 c31 -153 62 -510 44 -510
-18 0 -47 94 -61 193 -7 56 -16 176 -19 267 -7 189 3 204 36 50z m2238 -65
c28 -20 52 -40 52 -45 0 -36 -85 1 -113 49 -25 42 -6 41 61 -4z m220 -86 c58
-25 140 -110 187 -194 60 -107 86 -207 92 -360 6 -129 -8 -269 -28 -281 -10
-6 -107 189 -134 271 -9 28 -21 95 -25 150 -14 163 -64 287 -157 394 l-47 53
35 -7 c19 -4 53 -15 77 -26z m-136 -121 c57 -127 64 -153 47 -175 -10 -12 -10
-14 -2 -9 8 4 22 -3 35 -17 24 -26 302 -640 320 -706 6 -20 25 -61 44 -92 36
-60 84 -163 84 -180 0 -6 -57 59 -126 143 -164 199 -148 184 -180 169 -24 -10
-26 -16 -21 -51 3 -21 30 -91 61 -155 53 -108 64 -124 175 -238 119 -123 147
-159 136 -177 -10 -16 -37 -12 -279 35 -155 30 -235 50 -249 62 -50 44 -148
220 -227 409 -23 54 -59 137 -80 184 -21 47 -56 147 -79 224 -23 76 -87 251
-141 388 -55 137 -100 253 -100 259 0 5 71 9 173 10 140 1 291 8 352 17 6 1
32 -44 57 -100z m107 -48 c56 -110 74 -161 69 -192 -3 -18 -12 -7 -41 50 -47
90 -107 239 -107 261 1 26 25 -11 79 -119z m-3359 -206 c-22 -111 -26 -263 -9
-346 18 -86 80 -207 140 -272 59 -65 152 -131 199 -141 39 -8 38 -20 -2 -46
-40 -24 -93 -20 -200 16 -164 56 -286 191 -333 372 -39 150 3 362 87 440 24
23 130 84 135 79 2 -2 -6 -47 -17 -102z m6140 -68 c0 -18 -30 -30 -43 -17 -5
5 -6 14 -3 20 10 16 46 13 46 -3z m361 -88 c37 -52 142 -238 137 -243 -11 -11
-113 -53 -119 -49 -4 2 -5 12 -3 22 10 39 -41 61 -143 62 -59 0 -73 12 -47 41
17 18 16 20 -7 45 -40 43 -72 54 -161 54 -127 0 -142 22 -40 60 51 20 69 21
166 15 102 -6 109 -5 123 14 24 35 59 26 94 -21z m-645 -232 c9 -39 40 -59
100 -67 61 -8 94 -30 94 -63 0 -30 56 -123 82 -137 24 -13 130 -6 206 13 50
12 39 19 120 -77 21 -26 26 -27 101 -24 67 4 85 8 130 37 64 39 74 40 101 5
30 -38 157 -302 213 -443 36 -90 117 -329 117 -345 0 -1 -20 -8 -44 -14 -25
-6 -86 -31 -137 -56 -51 -25 -100 -45 -110 -45 -19 0 -59 44 -59 65 0 6 11 25
25 41 27 31 33 58 13 52 -13 -4 -51 -51 -353 -433 -216 -274 -249 -318 -304
-412 -46 -81 -86 -131 -95 -122 -4 3 2 17 13 31 11 13 37 72 58 130 28 74 120
250 310 594 149 269 286 519 304 556 31 63 34 89 10 73 -14 -8 -91 -138 -212
-361 -104 -189 -135 -235 -98 -142 105 261 135 358 99 322 -5 -5 -47 -96 -94
-203 -92 -209 -119 -254 -109 -182 3 23 1 52 -5 64 -6 12 -13 45 -16 72 -2 28
-8 64 -11 82 -11 50 11 102 51 119 19 8 34 18 34 23 0 10 -25 21 -48 21 -21 0
-39 27 -63 98 -24 71 -24 90 3 119 30 32 14 45 -39 30 -40 -10 -45 -9 -70 14
-16 14 -43 36 -60 48 -27 18 -33 29 -33 58 0 45 -48 94 -117 118 -27 9 -70 26
-98 37 -27 11 -62 23 -77 25 -36 7 -35 20 1 130 17 48 33 107 37 131 7 47 20
55 30 18z m-2268 -384 c150 -185 307 -331 330 -307 4 4 -13 25 -38 47 l-45 40
40 -7 40 -7 -53 56 c-54 57 -68 85 -33 67 34 -19 161 -164 221 -253 58 -86
166 -295 194 -376 l15 -43 -31 -19 c-43 -26 -83 -34 -107 -21 -11 6 -36 42
-56 80 -20 38 -62 100 -94 138 -59 70 -97 131 -87 140 13 13 -32 71 -154 198
-115 120 -135 147 -174 228 -45 94 -61 137 -52 137 3 0 41 -44 84 -98z m2200
46 c7 -7 12 -22 12 -35 0 -29 13 -29 50 -1 34 24 52 18 27 -10 -10 -10 -17
-26 -17 -35 0 -28 37 -19 64 15 21 28 26 30 32 15 3 -9 3 -24 0 -33 -4 -11 0
-14 17 -12 18 2 22 -2 23 -27 0 -17 6 -29 12 -28 8 2 9 -7 6 -26 -7 -32 15
-51 55 -51 12 0 21 -4 21 -9 0 -5 13 -14 30 -21 16 -7 27 -16 24 -21 -6 -10
-210 -114 -253 -130 l-26 -9 21 17 c12 10 36 26 53 35 25 14 31 24 31 50 0 26
-11 43 -58 88 -37 36 -76 64 -107 75 -28 10 -56 23 -62 28 -13 10 -18 93 -7
121 7 19 35 21 52 4z m-4635 -194 c20 -10 37 -21 37 -25 0 -11 -64 -85 -240
-275 -91 -99 -233 -260 -315 -359 -229 -276 -265 -310 -265 -252 0 27 -23 63
-50 77 -16 8 -33 1 -94 -40 -78 -53 -171 -100 -195 -100 -8 0 7 14 32 31 66
44 201 190 331 359 120 157 276 343 448 537 l109 121 82 -28 c45 -15 99 -36
120 -46z m1772 -18 c196 -88 243 -115 271 -151 16 -21 51 -63 78 -92 42 -45
52 -52 63 -40 12 11 47 7 226 -30 117 -24 230 -50 252 -58 59 -22 107 -66 176
-161 l62 -86 -111 -111 c-70 -70 -115 -108 -121 -102 -5 6 -35 70 -67 144 -32
73 -64 135 -71 138 -8 3 -22 -2 -33 -12 -59 -54 -212 19 -250 119 -9 24 -14
26 -73 26 -72 0 -101 18 -91 57 13 49 -102 181 -236 274 -74 50 -156 121 -125
107 6 -2 28 -12 50 -22z m2728 -118 c12 -6 47 -33 79 -59 31 -26 62 -49 70
-52 9 -4 5 -13 -16 -32 -39 -35 -60 -30 -64 18 -3 33 -10 43 -53 73 -27 20
-49 42 -49 50 0 17 5 17 33 2z m527 -23 c0 -14 5 -25 11 -25 7 0 9 -11 5 -30
-5 -28 -4 -30 19 -24 23 6 25 3 25 -30 0 -20 5 -36 11 -36 17 0 -1 -21 -29
-31 -33 -13 -38 -7 -72 90 l-28 81 21 15 c30 21 37 19 37 -10z m-3009 -161
c19 -39 20 -49 9 -72 -7 -15 -14 -22 -15 -17 -2 6 -6 22 -9 38 -10 44 -32 32
-43 -23 -12 -58 -4 -70 47 -70 19 -1 48 -7 65 -14 29 -12 28 -13 -46 -25 -105
-18 -119 -10 -119 69 0 32 -4 61 -10 65 -14 9 -41 -39 -46 -82 -5 -34 0 -44
46 -97 59 -68 70 -91 70 -148 l0 -41 -104 101 c-58 56 -110 102 -115 102 -33
0 19 133 66 170 14 11 40 20 57 20 41 0 65 15 49 31 -8 8 -34 8 -104 -1 -126
-16 -249 -17 -287 -1 -18 8 -32 16 -32 20 0 3 37 7 83 7 92 2 259 41 311 73
l31 19 37 -39 c20 -22 47 -61 59 -85z m2707 14 c16 -16 15 -90 -1 -113 -18
-24 -36 -12 -29 20 2 14 -1 38 -8 54 -18 44 8 69 38 39z m382 -106 c0 -10 -9
-35 -20 -56 -21 -43 -19 -56 10 -56 30 0 32 -16 10 -59 -11 -22 -20 -43 -20
-46 0 -3 16 -5 35 -5 40 0 40 1 20 -47 -10 -24 -13 -51 -9 -82 5 -38 -2 -70
-36 -174 -23 -71 -44 -127 -46 -124 -3 3 -12 67 -20 143 -8 77 -28 220 -44
318 -17 99 -27 183 -23 187 12 11 43 17 96 18 39 1 47 -2 47 -17z m-390 -139
c31 -105 50 -218 56 -343 11 -207 -14 -276 -161 -444 -52 -60 -98 -121 -101
-135 -21 -92 -26 -101 -82 -150 -86 -76 -141 -101 -226 -101 l-71 0 122 60
c144 70 167 94 182 190 11 71 7 66 174 215 50 45 58 58 81 132 38 123 48 203
37 287 -20 141 -76 316 -102 316 -20 0 -7 19 19 28 46 17 51 14 72 -55z m1267
-81 c31 -20 59 -137 48 -202 -11 -64 -149 -240 -171 -217 -2 2 -8 47 -13 100
-5 52 -17 111 -26 130 -15 33 -50 57 -80 57 -24 0 -28 20 -8 42 10 12 54 38
98 59 78 37 127 47 152 31z m-3459 -35 c19 -20 112 -218 112 -238 0 -5 -36 -9
-80 -9 -90 0 -100 8 -100 77 0 34 -9 75 -36 171 -6 20 -3 22 38 22 33 0 50 -6
66 -23z m3093 -67 c21 -33 37 -50 51 -50 15 0 19 -5 15 -19 -2 -10 0 -26 5
-35 8 -14 12 -14 38 5 32 24 50 19 50 -16 0 -12 7 -26 16 -29 12 -5 14 -14 9
-45 -4 -25 -2 -46 6 -59 11 -17 11 -25 0 -46 -8 -14 -11 -35 -7 -51 7 -26 33
-272 43 -405 6 -69 -16 -318 -27 -325 -4 -3 -10 13 -14 35 -3 21 -27 80 -53
129 l-46 90 33 65 c27 54 33 79 37 153 7 118 -11 186 -94 353 -95 188 -127
222 -181 184 -12 -8 -22 -11 -22 -7 0 20 85 123 102 123 5 0 22 -22 39 -50z
m-2673 14 c35 -24 28 -51 -24 -82 -25 -15 -83 -51 -130 -81 -105 -66 -135 -64
-76 7 70 82 172 172 196 172 6 0 22 -7 34 -16z m212 -19 c0 -2 -18 -14 -40
-25 -48 -25 -53 -18 -7 10 32 20 47 25 47 15z m90 -125 c22 -44 40 -84 40 -89
0 -6 -21 -22 -46 -37 l-47 -28 -21 27 c-34 42 -88 135 -90 153 -1 16 70 52
106 53 12 1 30 -24 58 -79z m1958 50 c-15 -24 -22 -19 -13 9 3 12 11 19 16 16
5 -4 3 -14 -3 -25z m881 -122 c48 -148 122 -428 128 -483 l6 -60 -29 26 c-56
51 -199 109 -271 109 -47 0 -41 14 20 44 61 31 111 72 102 86 -3 5 -37 32 -75
61 -39 28 -70 55 -70 58 0 3 29 42 64 85 36 44 70 92 77 108 6 15 15 28 19 28
5 0 18 -28 29 -62z m-2972 -40 c87 -134 86 -132 60 -155 -42 -38 -317 -213
-334 -213 -4 0 -33 63 -65 140 l-56 139 46 30 c73 46 265 151 277 151 6 0 38
-42 72 -92z m-3945 10 c-8 -52 -29 -75 -99 -108 -91 -43 -110 -35 -42 17 30
23 72 60 94 82 21 23 42 41 45 41 4 0 4 -15 2 -32z m6290 -170 c75 -122 83
-164 44 -230 -33 -57 -33 -108 -1 -195 17 -45 24 -77 20 -98 -13 -65 -68 -233
-96 -291 -31 -67 -34 -68 -184 -130 -106 -44 -140 -66 -166 -108 -20 -33 -25
-24 -9 18 10 27 89 83 213 151 58 32 72 46 107 104 88 149 98 233 41 358 l-33
72 29 38 c44 55 61 93 69 151 6 44 3 57 -20 96 -33 57 -133 166 -152 166 -20
0 -18 9 13 53 l27 38 18 -47 c10 -26 46 -91 80 -146z m-2917 159 c-11 -7 -62
-40 -114 -72 -86 -55 -94 -58 -106 -42 -18 24 -29 87 -17 99 11 11 115 25 197
27 52 1 57 -1 40 -12z m825 -86 c22 -33 40 -62 40 -65 0 -7 -73 -56 -83 -56
-5 0 -5 9 -2 21 5 15 2 22 -15 26 -19 5 -19 7 -5 23 14 15 14 18 0 30 -8 7
-22 10 -30 6 -21 -8 -45 3 -45 20 0 17 57 54 82 54 10 0 35 -26 58 -59z m-736
39 c31 -11 41 -46 55 -194 17 -176 15 -279 -8 -307 -18 -22 -27 -24 -109 -24
-50 0 -94 3 -98 7 -16 16 52 219 117 350 27 54 49 108 49 120 -1 21 -3 20 -31
-12 -17 -19 -71 -97 -121 -173 -68 -105 -93 -137 -105 -132 -24 9 -164 93
-193 116 l-25 19 28 25 c36 32 54 32 33 0 -9 -14 -13 -25 -9 -25 5 0 62 41
128 90 112 85 222 150 251 150 7 0 24 -4 38 -10z m-3372 -73 c12 -19 9 -92 -5
-111 -8 -11 -50 -25 -122 -40 -61 -13 -142 -33 -181 -45 -105 -31 -111 -30
-120 24 -3 25 -4 51 -1 58 3 8 56 28 119 45 182 50 165 49 182 8 26 -63 56
-43 56 38 0 24 3 45 6 49 8 8 57 -11 66 -26z m6719 -103 c6 -7 8 -18 4 -23 -9
-16 -96 -74 -101 -68 -9 8 -25 130 -20 144 5 11 16 9 56 -13 28 -15 55 -33 61
-40z m-2770 16 c-21 -18 -51 -27 -51 -15 0 6 53 34 65 34 6 0 -1 -9 -14 -19z
m208 -6 c-17 -20 -69 -47 -69 -35 0 10 59 51 74 51 5 0 3 -7 -5 -16z m79 -58
c16 -18 51 -64 78 -102 26 -38 94 -134 151 -213 57 -79 106 -155 109 -168 7
-27 -4 -133 -14 -133 -4 0 -51 62 -105 138 -54 75 -150 204 -213 287 -63 82
-114 157 -114 166 0 15 53 58 71 59 4 0 20 -15 37 -34z m-387 4 c-13 -11 -31
-20 -40 -20 -10 0 -6 7 14 20 39 26 57 25 26 0z m230 -57 c69 -71 154 -180
338 -436 l143 -197 -11 -98 c-14 -122 -16 -331 -3 -344 15 -15 20 11 27 137 6
110 22 235 31 244 2 2 6 2 9 -1 7 -7 55 -316 55 -355 0 -39 1 -38 -165 -53
-66 -6 -134 -13 -152 -15 -30 -5 -32 -3 -37 27 -74 459 -102 608 -117 622 -17
18 -8 -106 20 -289 16 -99 28 -181 27 -182 0 -1 -33 -4 -72 -8 l-71 -7 -36
189 c-50 259 -84 353 -127 353 -25 0 -25 -2 0 -50 29 -57 110 -413 110 -480
-1 -25 -1 -25 -16 -5 -25 32 -299 588 -330 668 -15 39 -37 79 -48 88 -19 16
-19 18 27 50 48 34 327 199 337 199 3 0 31 -26 61 -57z m-552 -70 c1 -32 9
-51 35 -82 60 -72 82 -135 126 -357 22 -115 45 -229 50 -254 5 -25 48 -234 95
-464 47 -231 88 -429 91 -441 l5 -22 -308 -9 c-169 -5 -344 -9 -388 -9 -79 0
-80 0 -78 25 0 14 6 84 12 155 6 72 16 267 22 433 5 167 14 314 20 325 5 12
19 35 31 50 20 25 23 40 23 125 0 53 -3 143 -8 200 l-7 102 94 0 c141 0 140
-1 145 192 l3 153 18 -40 c10 -22 19 -59 19 -82z m-3636 45 c26 -21 31 -61 10
-87 -14 -17 -49 -31 -129 -52 l-109 -29 -17 23 c-10 12 -24 41 -32 65 -15 42
-15 43 9 52 24 9 189 37 231 39 11 1 28 -5 37 -11z m3301 -112 c-15 -43 -33
-80 -41 -83 -16 -6 -63 12 -63 24 0 11 121 145 126 140 2 -2 -8 -38 -22 -81z
m2617 47 c1 -10 0 -56 0 -103 -2 -70 2 -90 19 -115 11 -16 20 -39 20 -49 0
-28 -29 -56 -59 -56 -19 0 -22 3 -13 12 16 16 15 71 -3 138 -19 72 -19 140 1
168 18 26 34 29 35 5z m940 -13 c65 -19 168 -76 202 -109 18 -18 18 -19 -10
-39 -44 -31 -180 -97 -241 -117 -46 -15 -55 -16 -64 -4 -11 17 -2 198 13 252
12 43 16 44 100 17z m-6960 -159 c47 -47 37 -77 -39 -116 -19 -9 -40 -14 -47
-11 -17 6 -47 98 -40 118 7 19 42 36 73 37 13 1 36 -12 53 -28z m5779 -8 c-1
-16 -45 -86 -55 -86 -21 -1 -15 31 10 62 25 29 45 40 45 24z m1436 -28 c12
-50 -6 -112 -54 -182 -25 -37 -79 -129 -120 -203 -41 -74 -85 -149 -98 -166
-22 -30 -22 -32 -6 -47 24 -22 125 -47 187 -47 89 0 87 -6 -36 -136 -144 -154
-209 -229 -301 -350 -192 -254 -358 -537 -375 -637 -10 -62 12 -42 52 48 49
110 168 310 272 455 148 207 341 440 365 440 16 0 7 -43 -41 -177 -71 -203
-88 -232 -155 -268 -31 -16 -56 -33 -56 -37 0 -9 25 -15 90 -23 30 -3 91 -13
135 -22 54 -10 107 -14 161 -10 l81 6 5 -272 c3 -150 5 -273 4 -273 0 -1 -84
-14 -186 -28 -201 -29 -349 -43 -339 -32 4 4 84 29 179 55 94 27 177 54 183
61 22 23 -88 1 -453 -91 -195 -49 -363 -89 -372 -89 -18 0 -28 37 -48 185 -21
148 -32 205 -41 205 -13 0 -11 -91 6 -205 19 -132 19 -184 -1 -206 -26 -29 -8
-42 52 -36 53 5 54 5 54 -21 0 -33 -30 -153 -72 -290 l-31 -102 -674 2 c-762
3 -695 -5 -708 86 -14 100 -76 507 -82 532 -4 22 3 35 35 69 23 24 45 39 54
36 25 -10 125 173 532 980 278 550 355 695 367 695 4 0 10 -11 13 -25 4 -14
20 -32 37 -40 23 -12 29 -20 23 -33 -20 -43 14 -178 78 -305 16 -33 43 -98 60
-145 16 -47 66 -167 110 -266 93 -210 164 -389 173 -437 4 -22 -1 -54 -15 -93
-27 -78 -27 -115 0 -64 23 44 38 54 53 39 6 -6 15 -11 19 -11 19 0 4 62 -62
262 -53 164 -66 215 -58 226 9 10 27 12 72 8 113 -11 119 -10 140 18 88 114
127 139 170 111 31 -21 33 -31 6 -45 -11 -6 -20 -21 -20 -35 0 -46 -71 -241
-140 -385 -70 -146 -86 -196 -54 -169 24 20 120 214 189 384 l61 149 69 11
c119 18 255 97 255 147 0 24 -42 107 -84 166 -66 93 -69 103 -41 164 29 66 41
173 26 252 -13 73 -10 78 77 107 70 23 176 73 227 108 38 27 43 26 51 -4z
m371 -82 c-3 -10 -5 -4 -5 12 0 17 2 24 5 18 2 -7 2 -21 0 -30z m-1661 -68
c-11 -8 -22 -12 -25 -9 -6 6 19 24 34 24 6 -1 1 -7 -9 -15z m-1840 -290 c74
-151 139 -277 145 -280 20 -13 40 -69 64 -181 14 -64 24 -118 23 -119 -9 -7
-104 -35 -118 -35 -21 0 -29 24 -90 270 -28 113 -78 294 -110 402 -60 198 -65
218 -54 218 3 0 66 -124 140 -275z m3464 94 c-11 -72 -30 -199 -40 -282 -11
-82 -23 -153 -26 -156 -3 -3 -4 12 -1 34 4 22 9 74 12 115 14 158 68 493 73
447 2 -15 -6 -86 -18 -158z m-1934 44 c-85 -166 -127 -208 -225 -222 -35 -5
-46 -11 -49 -26 -8 -51 -14 -65 -28 -65 -9 0 -32 -14 -51 -31 -45 -39 -67 -35
-71 14 -3 37 -4 37 -48 37 -50 0 -59 17 -21 43 19 14 20 18 7 26 -8 6 -38 11
-67 11 -88 0 -109 -19 -48 -44 20 -9 39 -26 45 -40 5 -14 27 -34 49 -46 22
-11 45 -29 51 -39 5 -11 19 -23 31 -26 32 -10 142 48 178 94 27 34 109 86 120
75 5 -5 -192 -401 -230 -459 l-31 -49 -14 32 c-19 47 -63 62 -179 62 -52 0
-95 2 -95 5 0 16 -43 377 -56 473 -30 219 -6 147 47 -140 20 -112 39 -161 55
-145 4 4 -9 100 -29 214 -20 114 -35 208 -33 210 2 3 32 -10 66 -27 135 -68
244 -111 274 -108 28 3 35 11 74 90 l43 87 47 6 c98 12 111 16 173 55 35 21
65 39 67 40 2 0 -22 -48 -52 -107z m1204 -84 c-13 -62 -25 -87 -36 -76 -9 8
12 136 28 174 l12 28 4 -35 c2 -19 -2 -60 -8 -91z m-99 -133 c-39 -155 -63
-206 -97 -206 -7 0 -26 -12 -44 -26 -29 -25 -32 -26 -50 -9 -25 23 -35 14 -49
-39 -9 -37 -16 -45 -39 -51 -25 -5 -30 -13 -38 -52 -11 -57 -28 -64 -50 -21
-23 45 -21 45 -53 14 l-28 -27 -7 25 c-8 32 -22 33 -48 4 l-19 -23 4 52 c4 46
2 51 -13 43 -9 -5 -22 -16 -30 -24 -7 -9 -16 -16 -21 -16 -9 0 -49 59 -49 72
0 3 21 6 47 5 45 -2 49 0 65 31 9 19 18 36 21 38 2 2 36 -3 75 -12 l70 -17 50
32 c61 39 194 176 243 251 20 30 50 81 65 114 27 53 29 56 32 30 1 -16 -15
-100 -37 -188z m-5009 122 c14 -11 15 -18 5 -48 -13 -37 -36 -47 -82 -36 -28
7 -45 73 -23 87 20 13 82 11 100 -3z m243 -169 c117 -30 119 -31 105 -39 -43
-22 -726 -22 -703 1 5 5 100 18 213 29 112 12 207 24 210 27 7 7 124 -5 175
-18z m4861 -41 c26 -35 60 -91 77 -125 30 -61 30 -63 12 -83 -25 -28 -126 -77
-175 -85 -60 -10 -72 4 -54 63 16 52 60 222 69 265 3 15 10 27 15 27 6 0 31
-28 56 -62z m-4331 -25 l47 -6 -5 -54 c-7 -69 -84 -247 -167 -387 -93 -156
-232 -299 -355 -365 -37 -20 -40 -20 -44 -4 -2 10 -8 24 -13 30 -7 9 -5 15 8
20 80 28 131 59 177 105 127 128 326 493 309 570 -9 43 -201 68 -235 31 -22
-25 -51 -100 -117 -303 l-57 -175 -39 -8 c-59 -11 -379 -9 -480 3 -116 14
-138 25 -142 70 -4 40 16 60 60 60 38 0 44 20 18 69 -24 48 -35 54 -158 76
-88 16 -137 42 -103 53 16 5 47 37 71 72 21 30 110 38 484 42 l298 3 33 -38
c56 -64 67 -31 24 70 -20 46 -17 51 35 64 40 9 288 11 351 2z m4871 -50 c-3
-32 -13 -182 -22 -333 -9 -166 -20 -280 -27 -288 -18 -22 -234 -13 -270 11
-15 9 -27 24 -27 32 0 13 77 229 156 437 36 95 77 153 127 177 66 33 71 30 63
-36z m-5351 7 c-4 -6 -136 -10 -364 -10 -197 0 -379 -3 -405 -6 l-47 -7 7 -43
c8 -53 -5 -57 -37 -13 -37 52 -119 74 -184 49 -55 -21 -43 -64 46 -167 l59
-68 -33 -3 c-46 -4 -87 13 -87 37 0 11 -16 56 -35 101 -41 96 -43 118 -12 125
64 15 1101 20 1092 5z m2065 -85 c0 -8 -4 -17 -10 -20 -6 -4 -10 5 -10 20 0
15 4 24 10 20 6 -3 10 -12 10 -20z m2570 -34 c0 -23 -16 -36 -25 -21 -9 14 1
40 15 40 5 0 10 -9 10 -19z m-2500 -284 c54 -228 54 -227 171 -227 81 0 89 -2
89 -19 0 -22 -10 -26 -98 -40 -83 -13 -96 -24 -77 -61 23 -45 67 -54 231 -46
l142 7 41 -213 c57 -296 128 -692 136 -759 7 -53 6 -56 -17 -62 -35 -10 -201
-8 -217 2 -12 8 -11 41 8 228 40 398 50 726 20 696 -5 -5 -13 -65 -19 -133 -6
-69 -17 -206 -25 -305 -20 -240 -46 -460 -56 -477 -7 -11 -368 -14 -2116 -20
-1159 -3 -2137 -9 -2173 -12 -36 -4 -609 -15 -1275 -26 -665 -11 -1291 -22
-1390 -25 -99 -3 -196 -2 -215 3 -33 8 -35 10 -33 48 1 21 61 239 132 483 72
244 131 449 131 457 0 17 34 22 200 29 74 3 196 10 271 17 131 10 189 7 189
-11 0 -5 -29 -11 -65 -13 -63 -4 -85 -11 -72 -25 9 -8 500 -20 995 -25 305 -2
374 -1 381 11 7 11 12 11 32 0 19 -11 118 -14 514 -12 589 2 641 5 692 41 l38
27 300 3 c333 4 474 -3 456 -21 -8 -8 -110 -13 -334 -15 -321 -3 -397 -9 -302
-23 70 -10 825 -10 1030 1 94 5 559 13 1035 19 958 13 1609 27 1618 35 3 3 2
9 -2 14 -4 4 -407 10 -894 13 -734 4 -892 8 -917 19 -28 13 -19 15 120 21 83
3 420 12 750 18 330 7 605 14 611 16 7 2 -7 93 -42 272 -30 147 -53 279 -53
293 l1 25 8 -25 c5 -14 27 -105 50 -203z m-2922 106 c95 -3 169 -10 165 -14
-4 -4 -183 -10 -398 -14 -214 -4 -410 -11 -435 -14 -52 -8 -55 -21 -15 -83 48
-73 137 -118 192 -97 24 9 24 11 18 74 -6 56 -5 65 9 65 32 0 39 -48 16 -114
-11 -33 -20 -81 -20 -107 0 -49 -18 -76 -45 -66 -8 4 -17 18 -20 32 -3 14 -7
35 -10 48 -3 14 -36 45 -92 84 -146 103 -227 173 -214 187 7 6 49 14 94 17
121 8 557 10 755 2z m6249 -110 c-2 -21 -4 -4 -4 37 0 41 2 58 4 38 2 -21 2
-55 0 -75z m-6137 27 c12 -7 12 -12 2 -22 -20 -20 -14 -60 15 -103 26 -39 26
-39 10 -86 -10 -26 -17 -50 -17 -54 0 -4 21 -27 47 -51 26 -23 44 -46 41 -50
-18 -18 -113 -23 -333 -18 -271 5 -365 12 -365 24 0 5 18 30 41 56 39 45 40
49 34 98 -5 36 -2 62 9 88 9 21 16 55 16 76 0 21 3 42 7 45 10 11 476 8 493
-3z m3135 -54 c11 -16 15 -41 13 -73 -3 -41 -6 -48 -25 -51 -29 -4 -43 29 -43
99 0 42 3 49 20 49 11 0 27 -11 35 -24z m-5587 -58 c-19 -29 -64 -55 -75 -44
-9 9 55 66 75 66 12 0 12 -3 0 -22z m3119 -76 c9 -6 8 -16 -4 -41 -28 -56 -53
-61 -315 -61 -231 0 -275 6 -285 36 -8 24 32 55 82 63 63 11 506 13 522 3z
m5450 -29 c-3 -10 -5 -4 -5 12 0 17 2 24 5 18 2 -7 2 -21 0 -30z m-2687 14
c19 -7 73 -39 119 -71 46 -31 96 -60 112 -63 39 -8 53 -26 39 -52 -20 -38 -42
-29 -170 64 -122 89 -121 88 -178 70 -52 -17 -148 -17 -145 0 1 5 15 13 30 16
15 4 48 16 73 28 52 24 71 25 120 8z m-3214 -155 c-31 -4 -52 10 -42 27 5 7
17 5 39 -6 l32 -18 -29 -3z m-1536 18 c0 -5 -19 -19 -42 -31 -38 -19 -41 -23
-23 -30 11 -4 50 -5 88 -2 42 4 67 2 67 -4 0 -14 -104 -82 -152 -99 -22 -8
-76 -14 -120 -14 l-80 0 62 46 c34 25 81 62 103 83 59 53 97 73 97 51z m7437
-22 c-3 -7 -5 -2 -5 12 0 14 2 19 5 13 2 -7 2 -19 0 -25z m-7557 14 c0 -13
-110 -94 -171 -124 -65 -32 -148 -43 -170 -21 -10 10 4 20 63 48 67 32 252
103 271 105 4 0 7 -3 7 -8z m1895 -2 c14 -6 2 -9 -40 -9 -42 0 -54 3 -40 9 11
5 29 9 40 9 11 0 29 -4 40 -9z m-80 -46 c176 -8 175 -8 175 -53 0 -48 -7 -51
-118 -52 -48 0 -112 -4 -142 -8 -65 -10 -76 -3 -82 47 -7 54 7 86 35 78 12 -3
72 -9 132 -12z m-940 -35 c12 -12 -56 -11 -74 0 -7 5 -11 13 -7 19 7 11 61 -2
81 -19z m-1229 12 c-3 -5 -36 -22 -73 -37 -61 -26 -79 -29 -173 -28 -108 1
-353 30 -380 45 -10 5 6 9 45 10 175 5 524 16 553 17 18 1 31 -2 28 -7z m-848
-7 c-9 -9 -238 -62 -300 -69 -66 -8 -108 -1 -108 19 0 8 10 16 23 20 23 6 204
24 297 29 30 2 64 4 74 5 11 1 17 -1 14 -4z m2390 -6 c-25 -7 -51 -7 -75 0
-35 9 -31 10 37 10 68 0 72 -1 38 -10z m352 2 c11 -7 3 -10 -30 -10 -33 0 -41
3 -30 10 8 5 22 10 30 10 8 0 22 -5 30 -10z m-2450 -69 c19 -9 -13 -10 -147
-8 -128 2 -176 6 -185 16 -11 11 14 12 147 8 88 -2 171 -10 185 -16z m5744
-211 c33 -137 121 -698 111 -708 -3 -3 -6 1 -9 9 -10 33 -118 633 -131 734
-10 70 9 47 29 -35z m-7394 -354 c-51 -176 -100 -346 -109 -376 l-16 -55 -50
-6 c-27 -4 -188 -12 -357 -20 -230 -9 -314 -10 -332 -1 l-25 11 15 53 c25 82
111 296 147 362 28 52 40 63 97 92 36 18 142 58 235 90 94 31 240 87 325 124
85 38 157 63 159 58 2 -6 -38 -155 -89 -332z m10017 160 c-24 -18 -55 -23
-342 -46 -366 -29 -364 -20 5 25 118 14 224 27 235 29 11 2 43 4 70 4 44 1 48
0 32 -12z m-21 -66 c-35 -11 -343 -46 -576 -65 -165 -14 -369 -19 -325 -8 30
8 823 81 880 81 43 0 46 -1 21 -8z m44 -70 c0 -5 -10 -12 -22 -14 -42 -9 -272
-13 -328 -6 l-55 6 60 8 c33 4 69 8 80 10 53 8 265 5 265 -4z m19 -172 c12
-62 25 -141 28 -174 l6 -61 -64 -6 c-103 -10 -941 -20 -1002 -13 l-56 7 6 32
c3 18 25 95 47 172 l42 140 290 5 c159 3 377 6 485 8 l197 2 21 -112z"/>
<path d="M6054 8802 c-53 -39 -150 -145 -192 -211 -53 -82 -55 -183 -4 -138 9
8 39 20 66 26 53 13 127 60 151 97 33 50 4 46 -71 -11 -32 -24 -63 -45 -67
-45 -4 0 19 35 51 78 70 91 84 116 77 134 -3 7 6 29 19 47 14 19 23 38 20 42
-7 12 -6 13 -50 -19z"/>
<path d="M6075 8459 c-58 -39 -63 -41 -121 -36 -73 5 -99 -5 -69 -29 15 -12
39 -15 96 -12 63 2 81 7 110 29 40 31 77 89 57 89 -7 0 -40 -18 -73 -41z"/>
<path d="M5375 8311 c-188 -65 -385 -152 -385 -171 0 -20 219 -4 348 25 43 10
22 -13 -33 -36 -30 -12 -55 -26 -55 -31 0 -35 115 -2 163 47 167 173 154 232
-38 166z"/>
<path d="M5655 8163 c24 -106 83 -261 108 -282 36 -29 50 20 20 66 -10 14 -38
73 -63 131 -25 58 -51 107 -58 110 -9 3 -11 -4 -7 -25z"/>
<path d="M5490 8121 c-24 -49 -86 -100 -165 -138 -68 -32 -81 -60 -27 -55 49
4 100 33 165 97 69 67 91 100 83 120 -10 27 -35 16 -56 -24z"/>
<path d="M7329 5826 c-202 -63 -276 -96 -313 -137 -88 -97 -207 -439 -159
-456 17 -6 30 24 52 126 23 102 89 247 136 296 19 20 61 44 115 64 92 36 278
96 323 106 15 3 27 12 27 20 0 24 -64 17 -181 -19z"/>
<path d="M6730 5656 c-113 -51 -192 -97 -198 -114 -6 -20 16 -14 147 43 165
73 194 88 199 103 8 24 -54 11 -148 -32z"/>
<path d="M7374 5591 c-106 -37 -246 -103 -263 -124 -21 -26 -5 -22 157 39 159
59 217 88 207 104 -8 14 -9 13 -101 -19z"/>
<path d="M5217 5813 c-11 -10 -8 -52 8 -128 8 -39 15 -100 15 -136 0 -53 4
-69 20 -84 24 -22 25 -48 5 -105 -25 -71 -21 -89 40 -147 30 -29 59 -53 65
-53 20 0 10 29 -25 70 -46 55 -51 81 -31 145 21 67 20 98 -3 119 -13 12 -20
36 -24 90 -5 76 -44 236 -56 236 -4 0 -11 -3 -14 -7z"/>
<path d="M6470 1840 c0 -28 5 -42 19 -49 22 -12 31 -5 31 23 0 24 -26 66 -41
66 -5 0 -9 -18 -9 -40z"/>
<path d="M2432 7373 c-81 -115 -169 -388 -179 -553 -9 -161 36 -356 123 -536
46 -94 106 -175 120 -161 4 4 -29 83 -74 175 -45 92 -86 187 -92 212 -6 25
-13 124 -17 220 -5 148 -3 188 12 255 22 98 74 236 120 319 19 35 35 70 35 79
0 26 -27 20 -48 -10z"/>
<path d="M3150 7383 c-19 -3 -39 -9 -44 -14 -6 -5 46 -9 136 -9 155 0 219 7
196 21 -13 9 -220 10 -288 2z"/>
<path d="M3260 7182 c-180 -54 -220 -70 -220 -92 0 -20 19 -30 60 -30 16 0 33
-7 38 -16 8 -15 20 -13 118 14 156 44 184 57 184 87 0 35 -21 75 -39 74 -9 0
-72 -17 -141 -37z"/>
<path d="M3340 7061 c-156 -55 -192 -71 -198 -88 -6 -19 15 -16 109 16 138 47
239 92 239 107 0 19 4 20 -150 -35z"/>
<path d="M3268 6902 c-46 -52 -86 -118 -76 -127 10 -11 37 7 57 38 11 18 33
52 50 76 54 77 35 85 -31 13z"/>
<path d="M2824 6800 c-39 -12 -61 -37 -47 -51 7 -7 22 -5 48 5 43 18 140 21
181 6 15 -6 42 -24 61 -41 41 -36 60 -29 36 13 -34 56 -69 73 -163 75 -47 1
-99 -2 -116 -7z"/>
<path d="M3930 6793 c-19 -8 -50 -26 -68 -39 -27 -21 -30 -28 -21 -45 15 -28
71 -53 103 -45 22 5 26 12 26 44 1 20 7 48 15 62 8 14 14 28 15 33 0 11 -31 7
-70 -10z m0 -57 c0 -15 -24 -28 -34 -19 -7 7 13 33 25 33 5 0 9 -6 9 -14z"/>
<path d="M3227 6723 c-52 -64 -59 -86 -25 -81 37 5 114 138 80 138 -5 0 -30
-26 -55 -57z"/>
<path d="M2877 6705 c-26 -7 -55 -19 -64 -27 -14 -11 -10 -14 33 -24 l49 -10
-3 -61 c-3 -52 0 -65 17 -82 20 -20 51 -29 51 -13 -1 4 -7 18 -15 32 -8 14
-14 36 -14 50 -1 33 40 104 62 108 14 3 17 -4 17 -37 0 -28 4 -41 14 -41 29 0
36 78 10 104 -19 19 -89 20 -157 1z"/>
<path d="M2725 6613 c-13 -81 40 -216 114 -287 37 -36 44 -39 98 -40 74 0 113
10 113 30 0 14 -8 15 -45 10 -80 -12 -170 46 -215 139 -11 22 -23 72 -27 109
-9 78 -28 97 -38 39z"/>
<path d="M9620 6403 c1 -10 15 -27 33 -38 38 -24 48 -67 21 -96 -16 -18 -16
-21 -2 -36 22 -21 79 -10 115 23 l28 24 -54 50 c-45 43 -116 90 -136 90 -3 0
-5 -8 -5 -17z"/>
<path d="M2616 6318 c-30 -64 -38 -118 -17 -118 10 0 44 84 56 138 10 50 -10
39 -39 -20z"/>
<path d="M2490 6034 c0 -14 27 -53 77 -112 117 -137 292 -425 363 -595 76
-182 83 -224 82 -464 -1 -130 2 -213 8 -213 5 0 12 12 16 28 3 15 8 33 10 40
7 25 28 6 40 -35 24 -81 53 -105 84 -68 25 30 -28 287 -79 387 -17 31 -37 85
-46 120 -23 87 -79 233 -136 356 -73 155 -281 451 -379 539 -24 22 -40 29 -40
17z"/>
<path d="M9405 5950 c-12 -19 23 -40 67 -40 21 0 38 4 38 9 0 27 -91 54 -105
31z"/>
<path d="M3197 4541 c-3 -16 -21 -43 -38 -59 -40 -37 -46 -88 -30 -245 17
-172 38 -193 130 -136 47 29 53 31 67 17 14 -14 13 -17 -13 -35 -15 -11 -56
-35 -91 -53 -69 -36 -99 -70 -62 -70 11 0 55 7 96 16 150 30 134 4 -31 -52
l-120 -40 -8 -75 c-4 -41 -6 -101 -5 -134 l3 -60 41 1 c47 1 230 69 237 89 3
7 11 66 18 132 11 110 11 125 -10 228 -40 192 -140 493 -167 502 -6 2 -14 -9
-17 -26z"/>
<path d="M3176 3589 c-89 -9 -112 -22 -81 -45 16 -12 45 -15 141 -12 126 3
154 12 154 49 0 17 -8 19 -67 18 -38 -1 -104 -5 -147 -10z"/>
</g>
</svg>
