<?xml version="1.0" standalone="no"?>
<!DOCTYPE svg PUBLIC "-//W3C//DTD SVG 20010904//EN"
 "http://www.w3.org/TR/2001/REC-SVG-20010904/DTD/svg10.dtd">
<svg version="1.0" xmlns="http://www.w3.org/2000/svg"
 width="1213.000000pt" height="1280.000000pt" viewBox="0 0 1213.000000 1280.000000"
 preserveAspectRatio="xMidYMid meet">
<metadata>
Created by potrace 1.15, written by Peter Selinger 2001-2017
</metadata>
<g transform="translate(0.000000,1280.000000) scale(0.100000,-0.100000)"
fill="#be4d25" stroke="none">
<path d="M0 12655 c0 -145 0 -147 60 -388 34 -133 65 -259 71 -279 l10 -38
385 0 384 0 10 -22 c25 -60 294 -1028 335 -1208 25 -113 59 -261 75 -330 37
-162 18 -79 600 -2625 275 -1204 499 -2194 496 -2200 -2 -5 -39 -25 -82 -42
-234 -96 -464 -311 -586 -548 -91 -179 -131 -346 -131 -550 0 -148 11 -218 54
-360 136 -441 530 -768 994 -824 157 -19 536 -34 548 -22 8 8 1245 11 4244 11
l4233 0 0 428 0 427 -4473 0 -4472 0 -57 23 c-76 31 -150 99 -185 170 -24 50
-28 69 -28 147 0 77 4 98 26 145 15 30 46 74 69 97 86 85 -5 70 1494 250 749
90 2747 330 4440 533 1693 203 3081 372 3084 375 3 3 87 1239 188 2747 100
1509 185 2769 187 2801 l5 57 -2740 0 c-2372 0 -2739 2 -2735 14 3 8 85 148
181 310 172 292 174 297 153 310 -96 59 -199 117 -201 115 -2 -2 -101 -172
-222 -377 l-219 -372 -1844 2 -1845 3 -170 683 -171 682 -1082 0 -1083 0 0
-145z m1935 -1050 l170 -680 273 -3 272 -2 0 -340 0 -340 -379 0 c-353 0 -380
1 -385 18 -3 9 -45 195 -95 412 -65 287 -136 559 -260 995 -95 330 -174 606
-176 613 -4 10 39 12 203 10 l207 -3 170 -680z m1735 -1025 l0 -340 -425 0
-425 0 0 340 0 340 425 0 425 0 0 -340z m1030 0 l0 -340 -430 0 -430 0 0 340
0 340 430 0 430 0 0 -340z m1020 193 l0 -147 -112 -193 -113 -193 -312 0 -313
0 0 340 0 340 425 0 425 0 0 -147z m1030 -193 l0 -340 -430 0 -430 0 0 81 c0
44 5 90 11 102 6 12 74 129 151 260 l140 237 279 0 279 0 0 -340z m1020 0 l0
-340 -425 0 -425 0 0 340 0 340 425 0 425 0 0 -340z m1030 0 l0 -340 -430 0
-430 0 0 340 0 340 430 0 430 0 0 -340z m1020 0 l0 -340 -425 0 -425 0 0 340
0 340 425 0 425 0 0 -340z m1030 0 l0 -340 -430 0 -430 0 0 340 0 340 430 0
430 0 0 -340z m576 288 c-3 -29 -13 -172 -21 -318 -9 -146 -18 -275 -21 -287
-4 -23 -6 -23 -184 -23 l-180 0 0 340 0 340 206 0 206 0 -6 -52z m-8778 -1231
l2 -427 -262 2 -261 3 -8 25 c-4 14 -26 108 -49 210 -23 102 -64 281 -91 399
-27 117 -49 215 -49 217 0 2 161 3 358 2 l357 -3 3 -428z m1022 3 l0 -430
-425 0 -425 0 0 430 0 430 425 0 425 0 0 -430z m1030 0 l0 -430 -430 0 -430 0
0 423 c0 233 3 427 7 430 3 4 197 7 430 7 l423 0 0 -430z m690 426 c0 -2 -31
-55 -68 -117 -37 -63 -151 -255 -252 -426 -101 -172 -188 -313 -192 -313 -4 0
-8 194 -8 430 l0 430 260 0 c143 0 260 -2 260 -4z m330 -426 l0 -430 -265 0
c-146 0 -265 3 -265 6 0 5 106 186 402 687 55 93 105 167 114 167 12 0 14 -62
14 -430z m1030 0 l0 -430 -430 0 -430 0 0 423 c0 233 3 427 7 430 3 4 197 7
430 7 l423 0 0 -430z m1020 0 l0 -430 -425 0 -425 0 0 430 0 430 425 0 425 0
0 -430z m1030 0 l0 -430 -430 0 -430 0 0 423 c0 233 3 427 7 430 3 4 197 7
430 7 l423 0 0 -430z m1020 0 l0 -430 -425 0 -425 0 0 430 0 430 425 0 425 0
0 -430z m1030 0 l0 -430 -427 2 -428 3 -3 415 c-1 228 0 421 3 427 3 10 99 13
430 13 l425 0 0 -430z m517 353 c-3 -43 -16 -237 -28 -430 l-23 -353 -148 0
-148 0 0 430 0 430 176 0 177 0 -6 -77z m-8717 -1378 l0 -426 -146 3 -147 3
-93 405 c-51 223 -93 413 -94 423 0 16 18 17 240 17 l240 0 0 -425z m1020 0
l0 -425 -425 0 -425 0 0 425 0 425 425 0 425 0 0 -425z m1030 353 l0 -73 -207
-352 -208 -353 -222 0 -223 0 0 425 0 425 430 0 430 0 0 -72z m1020 -353 l0
-425 -425 0 -425 0 0 244 0 244 107 181 106 181 319 0 318 0 0 -425z m1030 0
l0 -425 -430 0 -430 0 0 425 0 425 430 0 430 0 0 -425z m1020 0 l0 -425 -425
0 -425 0 0 425 0 425 425 0 425 0 0 -425z m1030 0 l0 -425 -430 0 -430 0 0
425 0 425 430 0 430 0 0 -425z m1020 0 l0 -425 -425 0 -425 0 0 425 0 425 425
0 425 0 0 -425z m1030 0 l0 -425 -430 0 -430 0 0 425 0 425 430 0 430 0 0
-425z m450 393 c0 -18 -11 -197 -25 -398 -14 -201 -25 -377 -25 -392 l0 -28
-115 0 -115 0 0 425 0 425 140 0 140 0 0 -32z m-6600 -723 l0 -95 -59 0 -60 0
56 95 c31 52 58 95 60 95 1 0 3 -43 3 -95z m-2052 -699 l2 -426 -28 0 -28 0
-93 408 c-51 224 -95 416 -97 427 -5 19 0 20 118 18 l123 -2 3 -425z m1022 2
l0 -428 -425 0 -425 0 0 428 0 427 425 0 425 0 0 -427z m508 421 c-2 -3 -77
-131 -168 -285 l-165 -279 -3 275 c-1 151 -1 279 2 285 2 6 67 10 170 10 91 0
165 -3 164 -6z m1542 -419 l0 -430 -425 0 -425 0 0 425 0 425 423 3 c232 1
423 3 425 5 1 1 2 -191 2 -428z m1030 -5 l0 -425 -430 0 -430 0 0 423 c0 233
2 426 4 428 2 2 196 3 430 1 l426 -2 0 -425z m1020 3 l0 -428 -425 0 -425 0 0
428 0 427 425 0 425 0 0 -427z m1030 -3 l0 -425 -430 0 -430 0 0 423 c0 233 2
426 4 428 2 2 196 3 430 1 l426 -2 0 -425z m1020 5 l0 -430 -425 0 -425 0 0
425 0 425 423 3 c232 1 423 3 425 5 1 1 2 -191 2 -428z m1030 -5 l0 -425 -430
0 -430 0 0 423 c0 233 2 426 4 428 2 2 196 3 430 1 l426 -2 0 -425z m358 33
c-15 -216 -27 -408 -27 -425 l-1 -33 -80 0 -80 0 0 425 0 424 103 3 c56 2 104
2 107 1 3 0 -7 -178 -22 -395z m-6508 -33 l0 -425 -361 0 c-201 0 -359 4 -357
9 2 5 113 196 248 425 l245 416 113 0 112 0 0 -425z m-2051 -622 c0 -25 -1
-26 -9 -8 -12 27 -12 35 0 35 6 0 10 -12 9 -27z m921 20 c-1 -5 -112 -196
-248 -426 l-247 -418 -122 -2 c-94 -2 -124 1 -128 11 -3 8 -5 200 -5 428 l0
414 375 0 c206 0 375 -3 375 -7z m1128 -418 l-3 -425 -425 0 -425 0 -3 392
c-3 355 -1 396 14 426 l17 32 414 0 413 0 -2 -425z m1022 -2 l0 -428 -425 0
-425 0 0 428 0 427 425 0 425 0 0 -427z m1028 2 l-3 -425 -425 0 -425 0 -3
425 -2 425 430 0 430 0 -2 -425z m1022 -2 l0 -428 -425 0 -425 0 0 428 0 427
425 0 425 0 0 -427z m1028 2 l-3 -425 -425 0 -425 0 -3 425 -2 425 430 0 430
0 -2 -425z m1022 -2 l0 -428 -425 0 -425 0 0 428 0 427 425 0 425 0 0 -427z
m1028 55 l-3 -372 -423 -51 c-233 -28 -425 -49 -427 -46 -3 2 -5 193 -5 423
l0 418 430 0 430 0 -2 -372z m316 325 c-2 -27 -13 -185 -24 -352 -11 -168 -22
-307 -25 -309 -2 -2 -24 -7 -50 -9 l-45 -6 0 362 0 361 75 0 74 0 -5 -47z
m-7494 -555 l0 -253 -145 0 c-110 0 -145 3 -143 12 3 12 281 492 286 493 1 0
2 -114 2 -252z m-700 -427 c0 -2 -17 -31 -37 -64 l-37 -61 -12 55 c-18 76 -19
74 36 74 28 0 50 -2 50 -4z m700 -284 l0 -293 -317 -37 c-175 -21 -321 -38
-324 -37 -4 0 -17 36 -28 80 l-22 80 143 245 143 244 200 3 c110 2 201 4 203
6 1 1 2 -130 2 -291z m1030 58 l0 -224 -32 -6 c-51 -8 -785 -95 -808 -95 -20
0 -20 5 -20 273 0 151 2 276 4 278 2 2 196 3 430 1 l426 -2 0 -225z m3063 145
c-4 -3 -192 -28 -418 -55 -225 -26 -413 -50 -417 -52 -5 -2 -8 39 -8 91 l0 96
423 2 422 3 3 -39 c2 -21 0 -42 -5 -46z m692 81 c-4 -3 -477 -61 -502 -61 -12
0 -19 51 -9 61 3 2 119 4 259 4 141 0 254 -2 252 -4z m-2735 -166 c0 -91 -2
-165 -4 -165 -3 0 -192 -22 -420 -50 -228 -27 -418 -50 -421 -50 -3 0 -5 97
-5 215 l0 215 425 0 425 0 0 -165z m1030 62 l0 -103 -422 -51 c-233 -27 -426
-48 -430 -46 -5 2 -8 71 -8 154 l0 149 430 0 430 0 0 -103z"/>
<path d="M3665 3190 c-344 -61 -617 -200 -859 -438 -255 -251 -412 -559 -467
-917 -17 -111 -14 -370 5 -483 84 -505 398 -938 846 -1170 215 -112 428 -168
680 -178 625 -27 1211 320 1494 884 117 233 169 455 168 722 -1 418 -155 805
-440 1102 -255 266 -558 424 -924 482 -133 22 -373 20 -503 -4z"/>
<path d="M9815 3190 c-169 -30 -266 -60 -417 -129 -287 -131 -553 -378 -717
-666 -135 -237 -203 -497 -203 -785 -1 -266 48 -479 166 -719 175 -358 506
-656 876 -789 207 -74 336 -97 560 -97 224 0 353 23 560 97 370 133 698 428
875 787 119 240 168 454 167 726 -1 235 -42 431 -136 644 -171 388 -507 703
-913 856 -236 89 -570 120 -818 75z"/>
</g>
</svg>
